<svg width="66" height="23" viewBox="0 0 66 23" fill="none" xmlns="http://www.w3.org/2000/svg">
  <path d="M23.6653 22.7456H27.3991V6.88477H23.6653V22.7456Z" fill="white"/>
  <path d="M7.43823 0.254517C8.41823 0.254517 9.41784 0.303517 10.437 0.401517C11.466 0.489718 12.4657 0.651419 13.4359 0.88662C14.4061 1.11202 15.3175 1.43052 16.1701 1.84212C17.0227 2.24393 17.7675 2.75843 18.4045 3.38563C19.0513 4.00303 19.5609 4.74783 19.9333 5.62004C20.3057 6.48244 20.4919 7.49675 20.4919 8.66295C20.4919 10.2702 20.2028 11.6275 19.6246 12.7349C19.0464 13.8325 18.2575 14.7194 17.2579 15.3956C17.6793 16.0424 18.0419 16.7186 18.3457 17.4242C18.6495 18.1298 18.8945 18.8158 19.0807 19.4822C19.2767 20.1388 19.4188 20.7513 19.507 21.3197C19.5952 21.8881 19.6393 22.3634 19.6393 22.7456H15.8761C15.8761 22.1478 15.8271 21.5843 15.7291 21.0551C15.6311 20.5161 15.4939 20.0065 15.3175 19.5263C15.1411 19.0363 14.9353 18.5757 14.7001 18.1445C14.4747 17.7133 14.2297 17.2968 13.9651 16.895C13.0341 17.1596 12.0491 17.3507 11.0103 17.4683C9.97154 17.5761 8.88864 17.63 7.76163 17.63C7.08543 17.63 6.39943 17.6104 5.70362 17.5712C5.00782 17.532 4.32182 17.483 3.64561 17.4242V22.6868H0V1.10712C0.215601 1.03852 0.558602 0.95522 1.029 0.857219C1.50921 0.759219 2.07271 0.666118 2.71951 0.577918C3.37611 0.489718 4.10622 0.416217 4.90982 0.357417C5.71342 0.288817 6.55623 0.254517 7.43823 0.254517ZM8.49663 3.48853C7.84983 3.48853 7.23243 3.51793 6.64443 3.57673C6.05642 3.62573 5.54192 3.68453 5.10092 3.75313C4.57172 3.83153 4.08662 3.91973 3.64561 4.01773V14.0726C3.95922 14.1412 4.30712 14.2 4.68932 14.249C5.01272 14.298 5.39002 14.3421 5.82122 14.3813C6.25242 14.4107 6.71303 14.4254 7.20303 14.4254C7.84003 14.4254 8.51133 14.4107 9.21694 14.3813C9.93234 14.3421 10.6379 14.2588 11.3337 14.1314C12.0393 14.004 12.7058 13.8178 13.333 13.5728C13.97 13.318 14.5286 12.9848 15.0088 12.5732C15.4988 12.1518 15.8859 11.6324 16.1701 11.015C16.4641 10.3976 16.6111 9.65275 16.6111 8.78055C16.6111 8.05535 16.4935 7.41835 16.2583 6.86954C16.0231 6.32074 15.7046 5.85034 15.3028 5.45834C14.901 5.06634 14.4306 4.74293 13.8916 4.48813C13.3624 4.23333 12.794 4.03243 12.1863 3.88543C11.5885 3.73843 10.9711 3.63553 10.3341 3.57673C9.70694 3.51793 9.09444 3.48853 8.49663 3.48853Z" fill="white"/>
  <path fill-rule="evenodd" clip-rule="evenodd" d="M25.5319 0C25.6112 0.00257425 25.6918 0.00588481 25.774 0.00991996C26.0039 0.0247881 26.2308 0.0563801 26.4544 0.104702C26.6813 0.153023 26.8955 0.223641 27.0971 0.316567C27.3019 0.41321 27.4815 0.539584 27.6358 0.6957C27.7933 0.855526 27.9178 1.05252 28.0092 1.2867C28.1037 1.52086 28.1509 1.80335 28.1509 2.13416C28.1509 2.40922 28.1131 2.65082 28.0375 2.85897C27.9619 3.06712 27.8595 3.24554 27.7303 3.39421C27.6012 3.54289 27.45 3.66555 27.2767 3.76219C27.1066 3.85883 26.9238 3.93503 26.7285 3.99078C26.5363 4.04654 26.3379 4.08557 26.1331 4.10787C26.0759 4.11419 26.0192 4.11962 25.9628 4.12415V4.12342C25.823 4.13516 25.6784 4.14112 25.5288 4.1413C25.3816 4.14095 25.2392 4.135 25.1015 4.12343V4.12414C25.0451 4.11961 24.9883 4.11418 24.9312 4.10786C24.7264 4.08556 24.5279 4.04653 24.3357 3.99077C24.1404 3.93502 23.9577 3.85882 23.7876 3.76218C23.6143 3.66554 23.4631 3.54288 23.3339 3.3942C23.2047 3.24552 23.1024 3.06711 23.0267 2.85896C22.9511 2.65081 22.9133 2.40921 22.9133 2.13415C22.9133 1.80334 22.9606 1.52085 23.0551 1.28668C23.1465 1.05251 23.2709 0.855514 23.4284 0.695687C23.5828 0.539572 23.7624 0.413198 23.9671 0.316555C24.1688 0.223629 24.383 0.153011 24.6098 0.10469C24.8335 0.0563682 25.0603 0.0247762 25.2903 0.00990809C25.3723 0.00587885 25.4528 0.00257423 25.5319 0Z" fill="white"/>
  <path fill-rule="evenodd" clip-rule="evenodd" d="M49.0391 6.96299C49.9344 7.56859 50.6409 8.36287 51.1587 9.34586C51.6678 10.3209 51.9266 11.5122 51.9352 12.9198L51.9352 15.041C51.9266 16.4486 51.6678 17.6399 51.1587 18.6149C50.6409 19.5979 49.9344 20.3922 49.0391 20.9978C47.8267 21.795 47.143 22.0414 46.0902 22.3406C45.2564 22.5776 44.3743 22.7487 43.444 22.854C43.0897 22.8908 42.7297 22.9206 42.3639 22.9433C42.3639 22.9433 41.5596 22.9925 41.1635 22.9925C40.7673 22.9925 39.9644 22.9434 39.9644 22.9434C39.5986 22.9206 39.2386 22.8908 38.8843 22.8541C37.954 22.7487 37.0719 22.5776 36.2381 22.3406C35.1853 22.0414 34.5016 21.795 33.2892 20.9978C32.3939 20.3922 31.6874 19.5979 31.1696 18.6149C30.6605 17.6399 30.4017 16.4486 30.3931 15.041V12.9198C30.4017 11.5122 30.6605 10.3209 31.1696 9.34583C31.6874 8.36284 32.3939 7.56856 33.2892 6.96296C34.5016 6.1657 35.1853 5.91935 36.2381 5.62013C37.0719 5.38316 37.954 5.21201 38.8843 5.10669C39.2386 5.06993 39.5986 5.04016 39.9644 5.01739C39.9644 5.01739 40.7673 4.96824 41.1635 4.96826C41.5596 4.96826 42.3639 5.01742 42.3639 5.01742C42.7297 5.04019 43.0897 5.06995 43.444 5.10672C44.3743 5.21204 45.2564 5.38318 46.0902 5.62016C47.143 5.91938 47.8267 6.16573 49.0391 6.96299ZM33.8684 15.041C33.8684 15.0518 33.8684 15.0626 33.8684 15.0735V15.0634L33.8684 15.041ZM38.6405 8.34546C39.2524 8.23341 39.8732 8.16008 40.5027 8.12552L37.9859 13.2012L35.469 18.2769C35.0595 17.9246 34.7345 17.4895 34.4945 16.9682L34.4931 16.9652C34.25 16.4545 34.1229 15.8269 34.1229 15.0735L34.1229 15.062L34.1229 15.0423L34.123 12.9198L34.123 12.9184C34.1193 12.248 34.2149 11.5798 34.4931 10.9956L34.4945 10.9925C34.7346 10.4711 35.0595 10.036 35.4692 9.68373C35.876 9.33499 36.3515 9.05071 36.8978 8.83206C37.4429 8.61919 38.0235 8.45686 38.6399 8.34556L38.6405 8.34546ZM41.1637 8.10252C40.9473 8.10851 40.727 8.11618 40.5027 8.12552L35.4693 18.2772C35.8762 18.6258 36.3516 18.9101 36.8978 19.1287C37.4429 19.3415 38.0235 19.5039 38.6399 19.6152L38.6405 19.6153C39.2524 19.7273 39.8731 19.8006 40.5027 19.8352C40.727 19.8445 40.9473 19.8522 41.1636 19.8582C41.3803 19.8522 41.601 19.8445 41.8256 19.8352C42.4552 19.8006 43.0759 19.7273 43.6878 19.6153L43.6884 19.6151C44.3048 19.5038 44.8854 19.3415 45.4305 19.1286C45.9769 18.91 46.4524 18.6256 46.8593 18.2769C47.2688 17.9246 47.5938 17.4895 47.8338 16.9682L47.8352 16.9652C48.0784 16.4545 48.2054 15.8268 48.2054 15.0735V15.067L48.2053 15.0423L48.2053 15.0409V12.9184C48.209 12.2479 48.1134 11.5798 47.8352 10.9956L47.8338 10.9926C47.5938 10.4712 47.2688 10.0361 46.8592 9.68382C46.4523 9.33505 45.9769 9.05074 45.4305 8.83208C44.8853 8.61921 44.3048 8.45689 43.6884 8.3456L43.6878 8.34548C43.0759 8.23344 42.4552 8.16011 41.8256 8.12555C41.601 8.1162 41.3803 8.10851 41.1637 8.10252Z" fill="white"/>
  <path fill-rule="evenodd" clip-rule="evenodd" d="M55.3745 14.759V8.53885H52.6986V5.23081H55.3745V0.254517H59.1075V5.23081H65.9127V8.53885H59.1075V15.0375C59.1262 15.6263 59.2296 16.2056 59.4746 16.72L59.4759 16.723C59.7159 17.2444 60.0409 17.6795 60.4505 18.0318C60.8574 18.3805 61.3329 18.6648 61.8792 18.8835C62.4244 19.0964 63.0049 19.2587 63.6213 19.37L63.6219 19.3701C64.1532 19.4674 64.691 19.4953 65.2355 19.5236C65.3182 19.5279 65.4011 19.5322 65.4841 19.5368C65.5762 19.5406 65.6676 19.5389 65.7583 19.5373C65.8394 19.5358 65.92 19.5343 66 19.5368V22.7456C65.5805 22.737 64.9458 22.6982 64.9458 22.6982C64.5801 22.6754 64.22 22.6456 63.8657 22.6089C62.9354 22.5035 62.0533 22.3324 61.2196 22.0954C60.1667 21.7962 59.4831 21.5498 58.2706 20.7526C57.3754 20.147 56.6689 19.3527 56.151 18.3697C55.642 17.3947 55.3831 16.2034 55.3745 14.7958V14.759Z" fill="white"/>
</svg>
